PathFileType	4	(X/Y/Z)	/Volumes/GoogleDrive/My Drive/Research/Stanford/Projects/Digital Athlete Project/Sprinting/Sprint Simulation/sprinter/subjects/JA1/experimental_data/TRC/run0500cms.trc
DataRate	CameraRate	NumFrames	NumMarkers	Units	OrigDataRate	OrigDataStartFrame	OrigNumFrames
250.000000	250.000000	4	53	mm	250.000000	1	569
Frame#	Time	C7			RSH			LSH			MAN			T7			LARM			LELB			LFOREARM			LWR			RARM			RELB			RFOREARM			RWR			RASI			LASI			SACR			P1			P2			P3			LTHLP			LTHLD			LTHAP			LLEPI			LPAT			LTIAP			LTIAD			LTILAT			LLMAL			LHEEL			LMFS			LMFL			LP1MT			LTOE			LP5MT			RTHLP			RTHLD			RTHAP			RTHAD			RLEPI			RPAT			RTIAP			RTIAD			RTILAT			RLMAL			RHEEL			RMFS			RMFL			RP1MT			RTOE			RP5MT			LTHAD			x52			x53			
		X1	Y1	Z1	X2	Y2	Z2	X3	Y3	Z3	X4	Y4	Z4	X5	Y5	Z5	X6	Y6	Z6	X7	Y7	Z7	X8	Y8	Z8	X9	Y9	Z9	X10	Y10	Z10	X11	Y11	Z11	X12	Y12	Z12	X13	Y13	Z13	X14	Y14	Z14	X15	Y15	Z15	X16	Y16	Z16	X17	Y17	Z17	X18	Y18	Z18	X19	Y19	Z19	X20	Y20	Z20	X21	Y21	Z21	X22	Y22	Z22	X23	Y23	Z23	X24	Y24	Z24	X25	Y25	Z25	X26	Y26	Z26	X27	Y27	Z27	X28	Y28	Z28	X29	Y29	Z29	X30	Y30	Z30	X31	Y31	Z31	X32	Y32	Z32	X33	Y33	Z33	X34	Y34	Z34	X35	Y35	Z35	X36	Y36	Z36	X37	Y37	Z37	X38	Y38	Z38	X39	Y39	Z39	X40	Y40	Z40	X41	Y41	Z41	X42	Y42	Z42	X43	Y43	Z43	X44	Y44	Z44	X45	Y45	Z45	X46	Y46	Z46	X47	Y47	Z47	X48	Y48	Z48	X49	Y49	Z49	X50	Y50	Z50	X51	Y51	Z51	X52	Y52	Z52	X53	Y53	Z53	
1	0.004000	-5545.333496	1577.616455	126.293869	-5527.898438	1568.211914	296.771271	-5511.277344	1564.596069	-28.996737	-5412.680176	1479.578003	153.594849	-5614.674316	1389.808350	129.153107	-5527.336914	1372.935059	-123.513260	-5532.916992	1236.553955	-148.136292	-5408.976562	1254.616089	-84.208298	-5300.135742	1279.323364	-28.233509	-5659.581543	1466.656372	380.513794	-5777.192383	1393.317383	415.915497	-5740.854004	1250.877563	412.736664	-5717.473145	1121.648071	398.112152	-5425.491211	1104.063843	227.402359	-5439.356445	1083.877075	20.134211	-5615.227051	1146.771362	152.267883	-5626.333008	1119.887207	99.674728	-5624.706543	1115.967896	206.866989	-5654.791992	1062.731689	151.991409	-5618.739746	811.951660	-30.889765	-5650.603516	703.488159	-11.600289	-5490.671875	764.307495	49.447823	-5688.447266	600.019043	23.748901	-5630.002930	531.294006	81.862488	-5863.819336	545.614258	94.108902	-6003.345215	549.081055	96.592941	-5923.076172	591.249756	28.233652	-6132.811035	578.737244	52.356133	-6160.594727	644.658142	102.343491	-6166.118652	476.988434	102.567299	-6225.541992	520.161438	31.254652	-6230.229004	432.610504	139.135269	-6225.799316	403.441589	96.534836	-6269.076660	469.835449	12.051261	-5435.507324	840.896423	333.432404	-5372.426758	746.328003	317.441071	-5317.724121	865.233704	250.209213	-5276.901855	784.370483	239.216461	-5291.071289	624.194275	272.822296	-5209.737793	660.411682	218.746933	-5204.764160	431.924713	179.673416	-5180.345703	308.627625	156.823792	-5248.653320	401.225159	257.071716	-5169.737793	175.386749	199.966019	-5228.775391	130.638306	149.767990	-5066.494629	203.631332	154.915344	-5093.262695	149.190155	200.612335	-5004.964844	182.960648	99.821930	-4983.057129	200.654083	142.918762	-5009.444336	126.429451	211.184067	-5551.027405	639.864715	63.277042	-5704.397461	1049.378418	389.933624	-5244.817383	1291.880859	0.215685
2	0.008000	-5524.475586	1575.697754	126.758713	-5507.097168	1565.953125	297.211914	-5490.927246	1562.828979	-28.931698	-5391.719727	1477.429688	153.264694	-5594.477051	1388.059326	129.419220	-5509.245605	1371.678589	-123.696198	-5516.276367	1235.341919	-148.434067	-5390.410156	1248.793945	-85.933487	-5280.301758	1268.936768	-30.446463	-5637.393066	1462.877930	381.685120	-5754.073242	1388.453735	417.659882	-5715.978516	1246.487549	414.226471	-5691.050293	1117.622314	399.351227	-5405.876465	1102.400269	227.071487	-5419.374023	1082.140381	19.717726	-5595.356934	1144.549683	151.616348	-5606.157715	1117.477295	99.017738	-5605.025879	1113.921875	206.238129	-5634.660645	1060.368896	151.342041	-5594.750488	808.158997	-30.956600	-5625.210449	699.196838	-11.725326	-5466.682129	762.206909	49.669861	-5661.620117	595.394653	23.298254	-5603.270996	526.821594	82.062111	-5836.660156	545.790649	93.594810	-5976.483887	553.585327	96.023361	-5909.531738	594.171936	23.725805	-6104.925293	588.012939	51.423286	-6130.737793	653.951416	101.981964	-6142.104004	486.589905	100.636787	-6198.313477	530.903748	30.309389	-6207.181152	444.469299	136.712982	-6203.825684	415.401489	93.947304	-6244.321289	482.885590	9.950947	-5415.979980	839.057739	333.329681	-5353.475586	744.237793	316.868683	-5298.067383	862.281494	249.987091	-5258.073730	782.167297	238.572220	-5274.229004	620.529541	272.871887	-5192.789062	658.062256	219.480179	-5188.412109	428.476501	179.070618	-5164.712891	305.077759	155.541794	-5233.273438	397.463867	255.661194	-5155.508789	171.321579	197.889221	-5213.960449	127.458694	146.071014	-5051.348145	199.816788	154.941040	-5079.087891	144.849579	199.588577	-4988.884766	179.155548	100.342842	-4967.863281	196.210114	144.048325	-4995.911133	121.561264	211.266800	-5524.384290	639.512008	64.558701	-5677.109863	1045.556396	391.032471	-5224.339355	1279.174438	-2.245175
3	0.012000	-5503.886230	1573.494019	127.267876	-5485.787109	1563.218872	297.698303	-5470.461914	1560.825439	-28.757063	-5370.775879	1474.933105	153.016098	-5574.097168	1386.096069	129.576553	-5491.442871	1370.343140	-123.809052	-5499.398926	1233.824585	-148.741074	-5372.943359	1243.165771	-87.478577	-5261.527832	1258.102905	-32.393562	-5615.018066	1458.825562	382.893250	-5730.434570	1383.204102	419.442047	-5690.664551	1241.842285	415.781464	-5664.975098	1113.432251	400.990845	-5387.421875	1100.839722	226.156906	-5399.264648	1080.104126	19.324326	-5575.590820	1142.198120	150.891663	-5586.292969	1115.003906	98.355934	-5585.401367	1111.759888	205.546432	-5614.773438	1057.907715	150.706573	-5571.121582	804.213928	-31.006783	-5599.846680	694.684814	-11.919314	-5442.838867	759.849060	49.799576	-5642.439453	590.631165	21.016331	-5577.238281	522.112793	81.587685	-5809.507812	545.742493	93.211021	-5949.069824	557.766113	95.482658	-5865.940430	594.647400	27.171499	-6076.504395	596.809204	50.474243	-6100.280273	662.683167	101.604866	-6116.572754	496.156860	99.600052	-6169.846680	541.163696	29.476940	-6183.923340	455.674011	134.339905	-6180.228027	426.905487	91.855858	-6218.708984	495.455414	7.912150	-5396.358887	837.226807	332.954742	-5334.529297	742.204712	316.070526	-5278.358398	859.809998	249.638214	-5239.213379	779.797363	238.390747	-5257.082520	617.066223	272.747711	-5175.547852	655.960999	220.503418	-5171.993652	424.860046	178.694229	-5149.286621	301.561798	154.311066	-5218.131836	393.728973	254.189087	-5142.465332	167.050400	195.720383	-5200.517090	124.226158	142.291702	-5037.686035	195.828415	155.860809	-5066.498047	139.982132	198.114731	-4974.241699	174.450256	100.755554	-4953.739258	190.854996	145.072693	-4983.759277	116.075027	211.162704	-5497.654476	638.874860	65.306411	-5650.608887	1041.620728	392.719421	-5204.900879	1265.694702	-4.396599
4	0.016000	-5483.165527	1571.091309	127.788094	-5464.666504	1560.405151	298.134888	-5450.174805	1558.703613	-28.602625	-5349.569824	1472.130493	152.919846	-5553.921875	1383.906494	129.783234	-5473.370605	1368.710449	-123.872093	-5482.356934	1232.287964	-149.022949	-5351.171387	1237.186646	-91.563339	-5239.866699	1247.470947	-36.701752	-5592.562500	1454.506470	384.179199	-5707.240234	1377.757202	421.519226	-5665.301758	1236.948364	417.485199	-5637.771973	1108.926880	402.368408	-5367.923828	1098.786377	226.230484	-5379.066895	1078.018677	19.051170	-5555.860840	1139.705933	150.099152	-5566.350586	1112.373535	97.558281	-5565.872070	1109.454834	204.778137	-5594.869141	1055.337036	149.955627	-5547.437988	800.026855	-31.186996	-5574.428711	690.069763	-12.187829	-5419.121094	757.474243	49.932224	-5611.708984	585.462219	20.898661	-5531.133789	520.975586	71.546280	-5781.689453	545.299133	92.677521	-5921.219238	561.742676	94.919914	-5839.490234	596.160583	25.811472	-6047.656250	605.150391	49.537148	-6069.523926	671.003113	101.180901	-6090.675781	505.321106	97.609726	-6140.510254	550.928467	28.718203	-6159.792480	466.191101	131.729645	-6157.096191	437.910919	88.932236	-6187.753418	506.871277	7.134073	-5376.762695	835.374878	332.359833	-5315.560059	740.247986	315.142517	-5258.652832	858.037048	249.505188	-5220.222168	777.544678	238.123398	-5240.045410	613.894287	272.796021	-5157.941406	653.981873	221.613586	-5156.438965	421.127563	177.704132	-5135.022461	297.745300	152.767410	-5203.306152	390.119629	252.774094	-5130.823730	162.713852	193.573730	-5188.501953	121.063889	138.485199	-5025.204590	190.548004	155.613022	-5055.249023	134.824036	197.194138	-4960.803711	169.036270	101.191460	-4940.940918	184.642761	145.821564	-4973.126953	109.795036	210.812683	-5470.838330	637.964792	65.583844	-5622.376465	1037.332764	393.914581	-5183.296387	1252.697876	-8.818344
